<mxfile host="app.diagrams.net" agent="Mozilla/5.0 (Windows NT 10.0; Win64; x64) AppleWebKit/537.36 (KHTML, like Gecko) Chrome/128.0.0.0 Safari/537.36" version="24.7.17">
  <diagram name="Pagina-1" id="3-wgmP2rOJKRI4swpv6s">
    <mxGraphModel dx="3044" dy="1311" grid="1" gridSize="10" guides="1" tooltips="1" connect="1" arrows="1" fold="1" page="1" pageScale="1" pageWidth="1169" pageHeight="827" math="0" shadow="0">
      <root>
        <mxCell id="0" />
        <mxCell id="1" parent="0" />
        <mxCell id="oS-47Cp94gKq5thYV_a9-36" value="" style="group" vertex="1" connectable="0" parent="1">
          <mxGeometry x="340" y="810" width="800" height="330" as="geometry" />
        </mxCell>
        <mxCell id="oS-47Cp94gKq5thYV_a9-4" value="" style="rounded=1;whiteSpace=wrap;html=1;arcSize=13;container=0;" vertex="1" parent="oS-47Cp94gKq5thYV_a9-36">
          <mxGeometry width="800" height="320" as="geometry" />
        </mxCell>
        <mxCell id="oS-47Cp94gKq5thYV_a9-10" value="&lt;b&gt;&lt;font style=&quot;font-size: 14px;&quot;&gt;Module Railway&lt;/font&gt;&lt;/b&gt;" style="text;html=1;align=center;verticalAlign=middle;whiteSpace=wrap;rounded=0;container=0;" vertex="1" parent="oS-47Cp94gKq5thYV_a9-36">
          <mxGeometry x="20" y="25" width="110" height="20" as="geometry" />
        </mxCell>
        <mxCell id="oS-47Cp94gKq5thYV_a9-21" style="edgeStyle=orthogonalEdgeStyle;rounded=0;orthogonalLoop=1;jettySize=auto;html=1;exitX=0.5;exitY=1;exitDx=0;exitDy=0;" edge="1" parent="oS-47Cp94gKq5thYV_a9-36" source="oS-47Cp94gKq5thYV_a9-11" target="oS-47Cp94gKq5thYV_a9-15">
          <mxGeometry relative="1" as="geometry">
            <Array as="points">
              <mxPoint x="400" y="80" />
              <mxPoint x="80" y="80" />
            </Array>
          </mxGeometry>
        </mxCell>
        <mxCell id="oS-47Cp94gKq5thYV_a9-22" style="edgeStyle=orthogonalEdgeStyle;rounded=0;orthogonalLoop=1;jettySize=auto;html=1;exitX=0.5;exitY=1;exitDx=0;exitDy=0;" edge="1" parent="oS-47Cp94gKq5thYV_a9-36" source="oS-47Cp94gKq5thYV_a9-11" target="oS-47Cp94gKq5thYV_a9-16">
          <mxGeometry relative="1" as="geometry">
            <Array as="points">
              <mxPoint x="400" y="80" />
              <mxPoint x="240" y="80" />
            </Array>
          </mxGeometry>
        </mxCell>
        <mxCell id="oS-47Cp94gKq5thYV_a9-23" style="edgeStyle=orthogonalEdgeStyle;rounded=0;orthogonalLoop=1;jettySize=auto;html=1;exitX=0.5;exitY=1;exitDx=0;exitDy=0;entryX=0.5;entryY=0;entryDx=0;entryDy=0;" edge="1" parent="oS-47Cp94gKq5thYV_a9-36" source="oS-47Cp94gKq5thYV_a9-11" target="oS-47Cp94gKq5thYV_a9-14">
          <mxGeometry relative="1" as="geometry">
            <Array as="points">
              <mxPoint x="400" y="50" />
              <mxPoint x="400" y="180" />
              <mxPoint x="480" y="180" />
            </Array>
          </mxGeometry>
        </mxCell>
        <mxCell id="oS-47Cp94gKq5thYV_a9-24" style="edgeStyle=orthogonalEdgeStyle;rounded=0;orthogonalLoop=1;jettySize=auto;html=1;exitX=0.5;exitY=1;exitDx=0;exitDy=0;" edge="1" parent="oS-47Cp94gKq5thYV_a9-36" source="oS-47Cp94gKq5thYV_a9-11" target="oS-47Cp94gKq5thYV_a9-13">
          <mxGeometry relative="1" as="geometry">
            <Array as="points">
              <mxPoint x="400" y="80" />
              <mxPoint x="560" y="80" />
            </Array>
          </mxGeometry>
        </mxCell>
        <mxCell id="oS-47Cp94gKq5thYV_a9-25" style="edgeStyle=orthogonalEdgeStyle;rounded=0;orthogonalLoop=1;jettySize=auto;html=1;exitX=0.5;exitY=1;exitDx=0;exitDy=0;" edge="1" parent="oS-47Cp94gKq5thYV_a9-36" source="oS-47Cp94gKq5thYV_a9-11" target="oS-47Cp94gKq5thYV_a9-18">
          <mxGeometry relative="1" as="geometry">
            <Array as="points">
              <mxPoint x="400" y="80" />
              <mxPoint x="320" y="80" />
            </Array>
          </mxGeometry>
        </mxCell>
        <mxCell id="oS-47Cp94gKq5thYV_a9-26" style="edgeStyle=orthogonalEdgeStyle;rounded=0;orthogonalLoop=1;jettySize=auto;html=1;exitX=0.5;exitY=1;exitDx=0;exitDy=0;entryX=0.5;entryY=0;entryDx=0;entryDy=0;" edge="1" parent="oS-47Cp94gKq5thYV_a9-36" source="oS-47Cp94gKq5thYV_a9-11" target="oS-47Cp94gKq5thYV_a9-19">
          <mxGeometry relative="1" as="geometry">
            <Array as="points">
              <mxPoint x="400" y="80" />
              <mxPoint x="720" y="80" />
            </Array>
          </mxGeometry>
        </mxCell>
        <mxCell id="oS-47Cp94gKq5thYV_a9-27" style="edgeStyle=orthogonalEdgeStyle;rounded=0;orthogonalLoop=1;jettySize=auto;html=1;exitX=0.5;exitY=1;exitDx=0;exitDy=0;" edge="1" parent="oS-47Cp94gKq5thYV_a9-36" source="oS-47Cp94gKq5thYV_a9-11" target="oS-47Cp94gKq5thYV_a9-12">
          <mxGeometry relative="1" as="geometry">
            <Array as="points">
              <mxPoint x="400" y="80" />
              <mxPoint x="480" y="80" />
            </Array>
          </mxGeometry>
        </mxCell>
        <mxCell id="oS-47Cp94gKq5thYV_a9-28" style="edgeStyle=orthogonalEdgeStyle;rounded=0;orthogonalLoop=1;jettySize=auto;html=1;exitX=0.5;exitY=1;exitDx=0;exitDy=0;" edge="1" parent="oS-47Cp94gKq5thYV_a9-36" source="oS-47Cp94gKq5thYV_a9-11" target="oS-47Cp94gKq5thYV_a9-17">
          <mxGeometry relative="1" as="geometry">
            <Array as="points">
              <mxPoint x="400" y="80" />
              <mxPoint x="640" y="80" />
            </Array>
          </mxGeometry>
        </mxCell>
        <mxCell id="oS-47Cp94gKq5thYV_a9-11" value="&lt;b&gt;&lt;font style=&quot;font-size: 14px;&quot;&gt;main&lt;/font&gt;&lt;/b&gt;" style="rounded=0;whiteSpace=wrap;html=1;container=0;" vertex="1" parent="oS-47Cp94gKq5thYV_a9-36">
          <mxGeometry x="340" y="20" width="120" height="40" as="geometry" />
        </mxCell>
        <mxCell id="oS-47Cp94gKq5thYV_a9-30" style="edgeStyle=orthogonalEdgeStyle;rounded=0;orthogonalLoop=1;jettySize=auto;html=1;exitX=0.5;exitY=1;exitDx=0;exitDy=0;entryX=0.25;entryY=0;entryDx=0;entryDy=0;" edge="1" parent="oS-47Cp94gKq5thYV_a9-36" source="oS-47Cp94gKq5thYV_a9-12" target="oS-47Cp94gKq5thYV_a9-13">
          <mxGeometry relative="1" as="geometry">
            <Array as="points">
              <mxPoint x="480" y="140" />
              <mxPoint x="530" y="140" />
            </Array>
          </mxGeometry>
        </mxCell>
        <mxCell id="oS-47Cp94gKq5thYV_a9-12" value="&lt;font style=&quot;font-size: 14px;&quot;&gt;&lt;b&gt;switch-3way&lt;/b&gt;&lt;/font&gt;" style="rounded=0;whiteSpace=wrap;html=1;container=0;" vertex="1" parent="oS-47Cp94gKq5thYV_a9-36">
          <mxGeometry x="419" y="100" width="122" height="40" as="geometry" />
        </mxCell>
        <mxCell id="oS-47Cp94gKq5thYV_a9-32" style="edgeStyle=orthogonalEdgeStyle;rounded=0;orthogonalLoop=1;jettySize=auto;html=1;exitX=0.5;exitY=1;exitDx=0;exitDy=0;entryX=0.75;entryY=0;entryDx=0;entryDy=0;" edge="1" parent="oS-47Cp94gKq5thYV_a9-36" source="oS-47Cp94gKq5thYV_a9-13" target="oS-47Cp94gKq5thYV_a9-14">
          <mxGeometry relative="1" as="geometry" />
        </mxCell>
        <mxCell id="oS-47Cp94gKq5thYV_a9-13" value="&lt;font style=&quot;font-size: 14px;&quot;&gt;&lt;b&gt;switch&lt;/b&gt;&lt;/font&gt;" style="rounded=0;whiteSpace=wrap;html=1;container=0;" vertex="1" parent="oS-47Cp94gKq5thYV_a9-36">
          <mxGeometry x="500" y="180" width="120" height="40" as="geometry" />
        </mxCell>
        <mxCell id="oS-47Cp94gKq5thYV_a9-14" value="&lt;font style=&quot;font-size: 14px;&quot;&gt;&lt;b&gt;segment&lt;/b&gt;&lt;/font&gt;" style="rounded=0;whiteSpace=wrap;html=1;container=0;" vertex="1" parent="oS-47Cp94gKq5thYV_a9-36">
          <mxGeometry x="340" y="260" width="120" height="40" as="geometry" />
        </mxCell>
        <mxCell id="oS-47Cp94gKq5thYV_a9-15" value="&lt;font style=&quot;font-size: 14px;&quot;&gt;&lt;b&gt;crossing&lt;/b&gt;&lt;/font&gt;" style="rounded=0;whiteSpace=wrap;html=1;container=0;" vertex="1" parent="oS-47Cp94gKq5thYV_a9-36">
          <mxGeometry x="20" y="180" width="120" height="40" as="geometry" />
        </mxCell>
        <mxCell id="oS-47Cp94gKq5thYV_a9-16" value="&lt;font style=&quot;font-size: 14px;&quot;&gt;&lt;b&gt;light&lt;/b&gt;&lt;/font&gt;" style="rounded=0;whiteSpace=wrap;html=1;container=0;" vertex="1" parent="oS-47Cp94gKq5thYV_a9-36">
          <mxGeometry x="170" y="180" width="120" height="40" as="geometry" />
        </mxCell>
        <mxCell id="oS-47Cp94gKq5thYV_a9-31" style="edgeStyle=orthogonalEdgeStyle;rounded=0;orthogonalLoop=1;jettySize=auto;html=1;exitX=0.5;exitY=1;exitDx=0;exitDy=0;entryX=0.75;entryY=0;entryDx=0;entryDy=0;" edge="1" parent="oS-47Cp94gKq5thYV_a9-36" source="oS-47Cp94gKq5thYV_a9-17" target="oS-47Cp94gKq5thYV_a9-13">
          <mxGeometry relative="1" as="geometry" />
        </mxCell>
        <mxCell id="oS-47Cp94gKq5thYV_a9-17" value="&lt;font style=&quot;font-size: 14px;&quot;&gt;&lt;b&gt;switch-cross&lt;/b&gt;&lt;/font&gt;" style="rounded=0;whiteSpace=wrap;html=1;container=0;" vertex="1" parent="oS-47Cp94gKq5thYV_a9-36">
          <mxGeometry x="580" y="100" width="120" height="40" as="geometry" />
        </mxCell>
        <mxCell id="oS-47Cp94gKq5thYV_a9-29" style="edgeStyle=orthogonalEdgeStyle;rounded=0;orthogonalLoop=1;jettySize=auto;html=1;exitX=0.5;exitY=1;exitDx=0;exitDy=0;entryX=0.25;entryY=0;entryDx=0;entryDy=0;" edge="1" parent="oS-47Cp94gKq5thYV_a9-36" source="oS-47Cp94gKq5thYV_a9-18" target="oS-47Cp94gKq5thYV_a9-14">
          <mxGeometry relative="1" as="geometry">
            <Array as="points">
              <mxPoint x="320" y="240" />
              <mxPoint x="370" y="240" />
            </Array>
          </mxGeometry>
        </mxCell>
        <mxCell id="oS-47Cp94gKq5thYV_a9-18" value="&lt;b&gt;&lt;font style=&quot;font-size: 14px;&quot;&gt;detection-block&lt;/font&gt;&lt;/b&gt;" style="rounded=0;whiteSpace=wrap;html=1;container=0;" vertex="1" parent="oS-47Cp94gKq5thYV_a9-36">
          <mxGeometry x="260" y="100" width="120" height="40" as="geometry" />
        </mxCell>
        <mxCell id="oS-47Cp94gKq5thYV_a9-19" value="&lt;font style=&quot;font-size: 14px;&quot;&gt;&lt;b&gt;train&lt;/b&gt;&lt;/font&gt;" style="rounded=0;whiteSpace=wrap;html=1;container=0;" vertex="1" parent="oS-47Cp94gKq5thYV_a9-36">
          <mxGeometry x="660" y="180" width="120" height="40" as="geometry" />
        </mxCell>
        <mxCell id="oS-47Cp94gKq5thYV_a9-106" value="" style="group" vertex="1" connectable="0" parent="1">
          <mxGeometry x="810" y="-0.002702702702691795" width="670" height="728.1313513513513" as="geometry" />
        </mxCell>
        <mxCell id="oS-47Cp94gKq5thYV_a9-2" value="" style="rounded=1;whiteSpace=wrap;html=1;arcSize=9;container=0;" vertex="1" parent="oS-47Cp94gKq5thYV_a9-106">
          <mxGeometry width="520" height="728.1313513513513" as="geometry" />
        </mxCell>
        <mxCell id="oS-47Cp94gKq5thYV_a9-122" style="edgeStyle=orthogonalEdgeStyle;rounded=0;orthogonalLoop=1;jettySize=auto;html=1;exitX=0.25;exitY=1;exitDx=0;exitDy=0;" edge="1" parent="oS-47Cp94gKq5thYV_a9-106" source="oS-47Cp94gKq5thYV_a9-38">
          <mxGeometry relative="1" as="geometry">
            <mxPoint x="-70" y="810.0027027027027" as="targetPoint" />
            <Array as="points">
              <mxPoint x="50" y="770" />
              <mxPoint x="-69" y="770" />
              <mxPoint x="-69" y="810" />
            </Array>
          </mxGeometry>
        </mxCell>
        <mxCell id="oS-47Cp94gKq5thYV_a9-38" value="&lt;b&gt;&lt;font style=&quot;font-size: 14px;&quot;&gt;main&lt;/font&gt;&lt;/b&gt;" style="rounded=0;whiteSpace=wrap;html=1;container=0;" vertex="1" parent="oS-47Cp94gKq5thYV_a9-106">
          <mxGeometry x="20" y="185.12372834372832" width="120" height="43.15435897435897" as="geometry" />
        </mxCell>
        <mxCell id="oS-47Cp94gKq5thYV_a9-44" value="&lt;font style=&quot;font-size: 14px;&quot;&gt;&lt;b&gt;Module Infrabel&lt;/b&gt;&lt;/font&gt;" style="text;html=1;align=center;verticalAlign=middle;whiteSpace=wrap;rounded=0;container=0;" vertex="1" parent="oS-47Cp94gKq5thYV_a9-106">
          <mxGeometry x="20" y="19.482702702702696" width="110" height="19.487179487179485" as="geometry" />
        </mxCell>
        <mxCell id="oS-47Cp94gKq5thYV_a9-103" value="" style="group" vertex="1" connectable="0" parent="oS-47Cp94gKq5thYV_a9-106">
          <mxGeometry x="180" y="17.050981090981082" width="320" height="177.82051282051282" as="geometry" />
        </mxCell>
        <mxCell id="oS-47Cp94gKq5thYV_a9-39" value="" style="rounded=1;whiteSpace=wrap;html=1;container=0;" vertex="1" parent="oS-47Cp94gKq5thYV_a9-103">
          <mxGeometry width="320" height="177.82051282051282" as="geometry" />
        </mxCell>
        <mxCell id="oS-47Cp94gKq5thYV_a9-45" value="&lt;font style=&quot;font-size: 14px;&quot;&gt;&lt;b&gt;GUI&lt;/b&gt;&lt;/font&gt;" style="text;html=1;align=center;verticalAlign=middle;whiteSpace=wrap;rounded=0;container=0;" vertex="1" parent="oS-47Cp94gKq5thYV_a9-103">
          <mxGeometry x="20" y="87.34432234432235" width="30" height="22.61904761904762" as="geometry" />
        </mxCell>
        <mxCell id="oS-47Cp94gKq5thYV_a9-48" value="&lt;span style=&quot;font-size: 14px;&quot;&gt;&lt;b&gt;admin-debug&lt;/b&gt;&lt;/span&gt;" style="rounded=0;whiteSpace=wrap;html=1;container=0;" vertex="1" parent="oS-47Cp94gKq5thYV_a9-103">
          <mxGeometry x="180" y="107.17948717948717" width="120" height="48.02615384615384" as="geometry" />
        </mxCell>
        <mxCell id="oS-47Cp94gKq5thYV_a9-49" value="&lt;span style=&quot;font-size: 14px;&quot;&gt;&lt;b&gt;startup&lt;/b&gt;&lt;/span&gt;" style="rounded=0;whiteSpace=wrap;html=1;container=0;" vertex="1" parent="oS-47Cp94gKq5thYV_a9-103">
          <mxGeometry x="180" y="19.48717948717949" width="120" height="46.808205128205124" as="geometry" />
        </mxCell>
        <mxCell id="oS-47Cp94gKq5thYV_a9-104" value="" style="group" vertex="1" connectable="0" parent="oS-47Cp94gKq5thYV_a9-106">
          <mxGeometry x="180" y="214.35032175032177" width="320" height="496.9230769230768" as="geometry" />
        </mxCell>
        <mxCell id="oS-47Cp94gKq5thYV_a9-40" value="" style="rounded=1;whiteSpace=wrap;html=1;arcSize=9;container=0;" vertex="1" parent="oS-47Cp94gKq5thYV_a9-104">
          <mxGeometry width="320" height="496.92307692307685" as="geometry" />
        </mxCell>
        <mxCell id="oS-47Cp94gKq5thYV_a9-46" value="&lt;font style=&quot;font-size: 14px;&quot;&gt;&lt;b&gt;Logic&lt;/b&gt;&lt;/font&gt;" style="text;html=1;align=center;verticalAlign=middle;whiteSpace=wrap;rounded=0;container=0;" vertex="1" parent="oS-47Cp94gKq5thYV_a9-104">
          <mxGeometry x="20" y="27.142857142857167" width="40" height="24.880952380952383" as="geometry" />
        </mxCell>
        <mxCell id="oS-47Cp94gKq5thYV_a9-81" style="edgeStyle=orthogonalEdgeStyle;rounded=0;orthogonalLoop=1;jettySize=auto;html=1;exitX=1;exitY=0.5;exitDx=0;exitDy=0;entryX=0;entryY=0.5;entryDx=0;entryDy=0;" edge="1" parent="oS-47Cp94gKq5thYV_a9-104" source="oS-47Cp94gKq5thYV_a9-47" target="oS-47Cp94gKq5thYV_a9-50">
          <mxGeometry relative="1" as="geometry" />
        </mxCell>
        <mxCell id="oS-47Cp94gKq5thYV_a9-82" style="edgeStyle=orthogonalEdgeStyle;rounded=0;orthogonalLoop=1;jettySize=auto;html=1;exitX=1;exitY=0.5;exitDx=0;exitDy=0;entryX=0;entryY=0.5;entryDx=0;entryDy=0;" edge="1" parent="oS-47Cp94gKq5thYV_a9-104" source="oS-47Cp94gKq5thYV_a9-47" target="oS-47Cp94gKq5thYV_a9-59">
          <mxGeometry relative="1" as="geometry" />
        </mxCell>
        <mxCell id="oS-47Cp94gKq5thYV_a9-83" style="edgeStyle=orthogonalEdgeStyle;rounded=0;orthogonalLoop=1;jettySize=auto;html=1;exitX=1;exitY=0.5;exitDx=0;exitDy=0;entryX=0;entryY=0.5;entryDx=0;entryDy=0;" edge="1" parent="oS-47Cp94gKq5thYV_a9-104" source="oS-47Cp94gKq5thYV_a9-47" target="oS-47Cp94gKq5thYV_a9-61">
          <mxGeometry relative="1" as="geometry" />
        </mxCell>
        <mxCell id="oS-47Cp94gKq5thYV_a9-84" style="edgeStyle=orthogonalEdgeStyle;rounded=0;orthogonalLoop=1;jettySize=auto;html=1;exitX=1;exitY=0.5;exitDx=0;exitDy=0;entryX=0;entryY=0.5;entryDx=0;entryDy=0;" edge="1" parent="oS-47Cp94gKq5thYV_a9-104" source="oS-47Cp94gKq5thYV_a9-47" target="oS-47Cp94gKq5thYV_a9-72">
          <mxGeometry relative="1" as="geometry" />
        </mxCell>
        <mxCell id="oS-47Cp94gKq5thYV_a9-85" style="edgeStyle=orthogonalEdgeStyle;rounded=0;orthogonalLoop=1;jettySize=auto;html=1;exitX=1;exitY=0.5;exitDx=0;exitDy=0;entryX=0;entryY=0.5;entryDx=0;entryDy=0;" edge="1" parent="oS-47Cp94gKq5thYV_a9-104" source="oS-47Cp94gKq5thYV_a9-47" target="oS-47Cp94gKq5thYV_a9-76">
          <mxGeometry relative="1" as="geometry" />
        </mxCell>
        <mxCell id="oS-47Cp94gKq5thYV_a9-90" style="edgeStyle=orthogonalEdgeStyle;rounded=0;orthogonalLoop=1;jettySize=auto;html=1;exitX=1;exitY=0.5;exitDx=0;exitDy=0;entryX=0;entryY=0.5;entryDx=0;entryDy=0;" edge="1" parent="oS-47Cp94gKq5thYV_a9-104" source="oS-47Cp94gKq5thYV_a9-47" target="oS-47Cp94gKq5thYV_a9-89">
          <mxGeometry relative="1" as="geometry" />
        </mxCell>
        <mxCell id="oS-47Cp94gKq5thYV_a9-47" value="&lt;b&gt;&lt;font style=&quot;font-size: 14px;&quot;&gt;app&lt;/font&gt;&lt;/b&gt;" style="rounded=0;whiteSpace=wrap;html=1;container=0;" vertex="1" parent="oS-47Cp94gKq5thYV_a9-104">
          <mxGeometry x="20" y="238.38666666666666" width="120" height="39.50051282051281" as="geometry" />
        </mxCell>
        <mxCell id="oS-47Cp94gKq5thYV_a9-50" value="&lt;span style=&quot;font-size: 14px;&quot;&gt;&lt;b&gt;startup&lt;/b&gt;&lt;/span&gt;" style="rounded=0;whiteSpace=wrap;html=1;container=0;" vertex="1" parent="oS-47Cp94gKq5thYV_a9-104">
          <mxGeometry x="180" y="22.614871794871817" width="120" height="45.59025641025641" as="geometry" />
        </mxCell>
        <mxCell id="oS-47Cp94gKq5thYV_a9-59" value="&lt;span style=&quot;font-size: 14px;&quot;&gt;&lt;b&gt;tcp&lt;/b&gt;&lt;/span&gt;" style="rounded=0;whiteSpace=wrap;html=1;container=0;" vertex="1" parent="oS-47Cp94gKq5thYV_a9-104">
          <mxGeometry x="180" y="111.35948717948713" width="120" height="44.372307692307686" as="geometry" />
        </mxCell>
        <mxCell id="oS-47Cp94gKq5thYV_a9-61" value="&lt;span style=&quot;font-size: 14px;&quot;&gt;&lt;b&gt;collision-detector&lt;/b&gt;&lt;/span&gt;" style="rounded=0;whiteSpace=wrap;html=1;container=0;" vertex="1" parent="oS-47Cp94gKq5thYV_a9-104">
          <mxGeometry x="180" y="282.56410256410265" width="120" height="43.15435897435897" as="geometry" />
        </mxCell>
        <mxCell id="oS-47Cp94gKq5thYV_a9-72" value="&lt;span style=&quot;font-size: 14px;&quot;&gt;&lt;b&gt;signalisator&lt;/b&gt;&lt;/span&gt;" style="rounded=0;whiteSpace=wrap;html=1;container=0;" vertex="1" parent="oS-47Cp94gKq5thYV_a9-104">
          <mxGeometry x="180" y="361.0389743589743" width="120" height="41.936410256410255" as="geometry" />
        </mxCell>
        <mxCell id="oS-47Cp94gKq5thYV_a9-76" value="&lt;span style=&quot;font-size: 14px;&quot;&gt;&lt;b&gt;udp&lt;/b&gt;&lt;/span&gt;" style="rounded=0;whiteSpace=wrap;html=1;container=0;" vertex="1" parent="oS-47Cp94gKq5thYV_a9-104">
          <mxGeometry x="180" y="197.6682051282051" width="120" height="40.71846153846153" as="geometry" />
        </mxCell>
        <mxCell id="oS-47Cp94gKq5thYV_a9-89" value="&lt;span style=&quot;font-size: 14px;&quot;&gt;&lt;b&gt;concurrency&lt;/b&gt;&lt;/span&gt;" style="rounded=0;whiteSpace=wrap;html=1;container=0;" vertex="1" parent="oS-47Cp94gKq5thYV_a9-104">
          <mxGeometry x="180" y="442.6415384615384" width="120" height="39.50051282051281" as="geometry" />
        </mxCell>
        <mxCell id="oS-47Cp94gKq5thYV_a9-105" value="" style="group" vertex="1" connectable="0" parent="oS-47Cp94gKq5thYV_a9-106">
          <mxGeometry x="570" y="309.4827027027027" width="100" height="250" as="geometry" />
        </mxCell>
        <mxCell id="oS-47Cp94gKq5thYV_a9-7" value="&lt;b&gt;&lt;font style=&quot;font-size: 14px;&quot;&gt;Simulator&lt;/font&gt;&lt;/b&gt;" style="rounded=1;whiteSpace=wrap;html=1;container=0;" vertex="1" parent="oS-47Cp94gKq5thYV_a9-105">
          <mxGeometry width="100" height="100" as="geometry" />
        </mxCell>
        <mxCell id="oS-47Cp94gKq5thYV_a9-8" value="&lt;b&gt;&lt;font style=&quot;font-size: 14px;&quot;&gt;Z21&lt;/font&gt;&lt;/b&gt;" style="rounded=1;whiteSpace=wrap;html=1;container=0;" vertex="1" parent="oS-47Cp94gKq5thYV_a9-105">
          <mxGeometry y="150" width="100" height="100" as="geometry" />
        </mxCell>
        <mxCell id="oS-47Cp94gKq5thYV_a9-53" value="" style="endArrow=classic;startArrow=classic;html=1;rounded=0;exitX=0.75;exitY=0;exitDx=0;exitDy=0;entryX=0;entryY=0.5;entryDx=0;entryDy=0;" edge="1" parent="oS-47Cp94gKq5thYV_a9-106" source="oS-47Cp94gKq5thYV_a9-38" target="oS-47Cp94gKq5thYV_a9-48">
          <mxGeometry width="50" height="50" relative="1" as="geometry">
            <mxPoint x="-50" y="200.43508365508364" as="sourcePoint" />
            <mxPoint y="143.8874646074646" as="targetPoint" />
            <Array as="points">
              <mxPoint x="110" y="149.48270270270268" />
            </Array>
          </mxGeometry>
        </mxCell>
        <mxCell id="oS-47Cp94gKq5thYV_a9-56" style="edgeStyle=orthogonalEdgeStyle;rounded=0;orthogonalLoop=1;jettySize=auto;html=1;exitX=0.25;exitY=0;exitDx=0;exitDy=0;entryX=0;entryY=0.5;entryDx=0;entryDy=0;" edge="1" parent="oS-47Cp94gKq5thYV_a9-106" source="oS-47Cp94gKq5thYV_a9-38" target="oS-47Cp94gKq5thYV_a9-49">
          <mxGeometry relative="1" as="geometry">
            <Array as="points">
              <mxPoint x="50" y="59.43142065142065" />
            </Array>
          </mxGeometry>
        </mxCell>
        <mxCell id="oS-47Cp94gKq5thYV_a9-54" value="" style="endArrow=classic;startArrow=classic;html=1;rounded=0;exitX=0.75;exitY=1;exitDx=0;exitDy=0;entryX=0;entryY=0.5;entryDx=0;entryDy=0;" edge="1" parent="oS-47Cp94gKq5thYV_a9-106" source="oS-47Cp94gKq5thYV_a9-38" target="oS-47Cp94gKq5thYV_a9-47">
          <mxGeometry width="50" height="50" relative="1" as="geometry">
            <mxPoint x="-50" y="200.43508365508364" as="sourcePoint" />
            <mxPoint y="143.8874646074646" as="targetPoint" />
            <Array as="points">
              <mxPoint x="110" y="472.5596257796258" />
            </Array>
          </mxGeometry>
        </mxCell>
        <mxCell id="oS-47Cp94gKq5thYV_a9-93" style="edgeStyle=orthogonalEdgeStyle;rounded=0;orthogonalLoop=1;jettySize=auto;html=1;exitX=1;exitY=0.5;exitDx=0;exitDy=0;entryX=0;entryY=0.5;entryDx=0;entryDy=0;" edge="1" parent="oS-47Cp94gKq5thYV_a9-106" source="oS-47Cp94gKq5thYV_a9-76" target="oS-47Cp94gKq5thYV_a9-8">
          <mxGeometry relative="1" as="geometry">
            <Array as="points">
              <mxPoint x="540" y="433.4827027027027" />
              <mxPoint x="540" y="509.4827027027027" />
            </Array>
          </mxGeometry>
        </mxCell>
        <mxCell id="oS-47Cp94gKq5thYV_a9-92" style="edgeStyle=orthogonalEdgeStyle;rounded=0;orthogonalLoop=1;jettySize=auto;html=1;exitX=1;exitY=0.5;exitDx=0;exitDy=0;entryX=0;entryY=0.5;entryDx=0;entryDy=0;" edge="1" parent="oS-47Cp94gKq5thYV_a9-106" source="oS-47Cp94gKq5thYV_a9-76" target="oS-47Cp94gKq5thYV_a9-7">
          <mxGeometry relative="1" as="geometry">
            <Array as="points">
              <mxPoint x="540" y="433.4827027027027" />
              <mxPoint x="540" y="359.4827027027027" />
            </Array>
          </mxGeometry>
        </mxCell>
        <mxCell id="oS-47Cp94gKq5thYV_a9-118" value="" style="group" vertex="1" connectable="0" parent="1">
          <mxGeometry width="670" height="610" as="geometry" />
        </mxCell>
        <mxCell id="oS-47Cp94gKq5thYV_a9-114" value="" style="group" vertex="1" connectable="0" parent="oS-47Cp94gKq5thYV_a9-118">
          <mxGeometry x="150" width="520" height="610" as="geometry" />
        </mxCell>
        <mxCell id="oS-47Cp94gKq5thYV_a9-3" value="" style="rounded=1;whiteSpace=wrap;html=1;arcSize=9;" vertex="1" parent="oS-47Cp94gKq5thYV_a9-114">
          <mxGeometry width="520" height="610" as="geometry" />
        </mxCell>
        <mxCell id="oS-47Cp94gKq5thYV_a9-37" value="&lt;b&gt;&lt;font style=&quot;font-size: 14px;&quot;&gt;main&lt;/font&gt;&lt;/b&gt;" style="rounded=0;whiteSpace=wrap;html=1;container=0;" vertex="1" parent="oS-47Cp94gKq5thYV_a9-114">
          <mxGeometry x="20" y="170" width="120" height="40" as="geometry" />
        </mxCell>
        <mxCell id="oS-47Cp94gKq5thYV_a9-41" value="&lt;font style=&quot;font-size: 14px;&quot;&gt;&lt;b&gt;Module Provider&lt;/b&gt;&lt;/font&gt;" style="text;html=1;align=center;verticalAlign=middle;whiteSpace=wrap;rounded=0;" vertex="1" parent="oS-47Cp94gKq5thYV_a9-114">
          <mxGeometry x="20" y="20" width="120" height="30" as="geometry" />
        </mxCell>
        <mxCell id="oS-47Cp94gKq5thYV_a9-108" value="" style="group" vertex="1" connectable="0" parent="oS-47Cp94gKq5thYV_a9-114">
          <mxGeometry x="180" y="200" width="320" height="394" as="geometry" />
        </mxCell>
        <mxCell id="oS-47Cp94gKq5thYV_a9-34" value="" style="rounded=1;whiteSpace=wrap;html=1;arcSize=8;container=0;" vertex="1" parent="oS-47Cp94gKq5thYV_a9-108">
          <mxGeometry width="320" height="394" as="geometry" />
        </mxCell>
        <mxCell id="oS-47Cp94gKq5thYV_a9-43" value="&lt;font style=&quot;font-size: 14px;&quot;&gt;&lt;b&gt;Logic&lt;/b&gt;&lt;/font&gt;" style="text;html=1;align=center;verticalAlign=middle;whiteSpace=wrap;rounded=0;container=0;" vertex="1" parent="oS-47Cp94gKq5thYV_a9-108">
          <mxGeometry x="20" y="32" width="40" height="16" as="geometry" />
        </mxCell>
        <mxCell id="oS-47Cp94gKq5thYV_a9-95" style="edgeStyle=orthogonalEdgeStyle;rounded=0;orthogonalLoop=1;jettySize=auto;html=1;exitX=1;exitY=0.5;exitDx=0;exitDy=0;entryX=0;entryY=0.5;entryDx=0;entryDy=0;" edge="1" parent="oS-47Cp94gKq5thYV_a9-108" source="oS-47Cp94gKq5thYV_a9-68" target="oS-47Cp94gKq5thYV_a9-69">
          <mxGeometry relative="1" as="geometry" />
        </mxCell>
        <mxCell id="oS-47Cp94gKq5thYV_a9-97" style="edgeStyle=orthogonalEdgeStyle;rounded=0;orthogonalLoop=1;jettySize=auto;html=1;exitX=1;exitY=0.5;exitDx=0;exitDy=0;entryX=0;entryY=0.5;entryDx=0;entryDy=0;" edge="1" parent="oS-47Cp94gKq5thYV_a9-108" source="oS-47Cp94gKq5thYV_a9-68" target="oS-47Cp94gKq5thYV_a9-73">
          <mxGeometry relative="1" as="geometry" />
        </mxCell>
        <mxCell id="oS-47Cp94gKq5thYV_a9-98" style="edgeStyle=orthogonalEdgeStyle;rounded=0;orthogonalLoop=1;jettySize=auto;html=1;exitX=1;exitY=0.5;exitDx=0;exitDy=0;entryX=0;entryY=0.5;entryDx=0;entryDy=0;" edge="1" parent="oS-47Cp94gKq5thYV_a9-108" source="oS-47Cp94gKq5thYV_a9-68" target="oS-47Cp94gKq5thYV_a9-78">
          <mxGeometry relative="1" as="geometry" />
        </mxCell>
        <mxCell id="oS-47Cp94gKq5thYV_a9-99" style="edgeStyle=orthogonalEdgeStyle;rounded=0;orthogonalLoop=1;jettySize=auto;html=1;exitX=1;exitY=0.5;exitDx=0;exitDy=0;entryX=0;entryY=0.5;entryDx=0;entryDy=0;" edge="1" parent="oS-47Cp94gKq5thYV_a9-108" source="oS-47Cp94gKq5thYV_a9-68" target="oS-47Cp94gKq5thYV_a9-80">
          <mxGeometry relative="1" as="geometry" />
        </mxCell>
        <mxCell id="oS-47Cp94gKq5thYV_a9-100" style="edgeStyle=orthogonalEdgeStyle;rounded=0;orthogonalLoop=1;jettySize=auto;html=1;exitX=1;exitY=0.5;exitDx=0;exitDy=0;entryX=0;entryY=0.5;entryDx=0;entryDy=0;" edge="1" parent="oS-47Cp94gKq5thYV_a9-108" source="oS-47Cp94gKq5thYV_a9-68" target="oS-47Cp94gKq5thYV_a9-70">
          <mxGeometry relative="1" as="geometry" />
        </mxCell>
        <mxCell id="oS-47Cp94gKq5thYV_a9-68" value="&lt;b&gt;&lt;font style=&quot;font-size: 14px;&quot;&gt;app&lt;/font&gt;&lt;/b&gt;" style="rounded=0;whiteSpace=wrap;html=1;container=0;" vertex="1" parent="oS-47Cp94gKq5thYV_a9-108">
          <mxGeometry x="20" y="180" width="120" height="40" as="geometry" />
        </mxCell>
        <mxCell id="oS-47Cp94gKq5thYV_a9-69" value="&lt;span style=&quot;font-size: 14px;&quot;&gt;&lt;b&gt;startup&lt;/b&gt;&lt;/span&gt;" style="rounded=0;whiteSpace=wrap;html=1;container=0;" vertex="1" parent="oS-47Cp94gKq5thYV_a9-108">
          <mxGeometry x="180" y="20" width="120" height="40" as="geometry" />
        </mxCell>
        <mxCell id="oS-47Cp94gKq5thYV_a9-70" value="&lt;span style=&quot;font-size: 14px;&quot;&gt;&lt;b&gt;tcp&lt;/b&gt;&lt;/span&gt;" style="rounded=0;whiteSpace=wrap;html=1;container=0;" vertex="1" parent="oS-47Cp94gKq5thYV_a9-108">
          <mxGeometry x="180" y="100" width="120" height="40" as="geometry" />
        </mxCell>
        <mxCell id="oS-47Cp94gKq5thYV_a9-73" value="&lt;span style=&quot;font-size: 14px;&quot;&gt;&lt;b&gt;route-calculator&lt;/b&gt;&lt;/span&gt;" style="rounded=0;whiteSpace=wrap;html=1;container=0;" vertex="1" parent="oS-47Cp94gKq5thYV_a9-108">
          <mxGeometry x="180" y="180" width="120" height="40" as="geometry" />
        </mxCell>
        <mxCell id="oS-47Cp94gKq5thYV_a9-78" value="&lt;span style=&quot;font-size: 14px;&quot;&gt;&lt;b&gt;concurrency&lt;/b&gt;&lt;/span&gt;" style="rounded=0;whiteSpace=wrap;html=1;container=0;" vertex="1" parent="oS-47Cp94gKq5thYV_a9-108">
          <mxGeometry x="180" y="260" width="120" height="40" as="geometry" />
        </mxCell>
        <mxCell id="oS-47Cp94gKq5thYV_a9-80" value="&lt;span style=&quot;font-size: 14px;&quot;&gt;&lt;b&gt;timetables&lt;/b&gt;&lt;/span&gt;" style="rounded=0;whiteSpace=wrap;html=1;container=0;" vertex="1" parent="oS-47Cp94gKq5thYV_a9-108">
          <mxGeometry x="180" y="340" width="120" height="40" as="geometry" />
        </mxCell>
        <mxCell id="oS-47Cp94gKq5thYV_a9-111" value="" style="endArrow=classic;startArrow=classic;html=1;rounded=0;exitX=0.75;exitY=1;exitDx=0;exitDy=0;entryX=0;entryY=0.5;entryDx=0;entryDy=0;" edge="1" parent="oS-47Cp94gKq5thYV_a9-114" source="oS-47Cp94gKq5thYV_a9-37" target="oS-47Cp94gKq5thYV_a9-68">
          <mxGeometry width="50" height="50" relative="1" as="geometry">
            <mxPoint x="180" y="230" as="sourcePoint" />
            <mxPoint x="580" y="240" as="targetPoint" />
            <Array as="points">
              <mxPoint x="110" y="400" />
            </Array>
          </mxGeometry>
        </mxCell>
        <mxCell id="oS-47Cp94gKq5thYV_a9-113" value="" style="group" vertex="1" connectable="0" parent="oS-47Cp94gKq5thYV_a9-114">
          <mxGeometry x="180" y="20" width="320" height="160" as="geometry" />
        </mxCell>
        <mxCell id="oS-47Cp94gKq5thYV_a9-35" value="" style="rounded=1;whiteSpace=wrap;html=1;" vertex="1" parent="oS-47Cp94gKq5thYV_a9-113">
          <mxGeometry width="320" height="160" as="geometry" />
        </mxCell>
        <mxCell id="oS-47Cp94gKq5thYV_a9-42" value="&lt;font style=&quot;font-size: 14px;&quot;&gt;&lt;b&gt;GUI&lt;/b&gt;&lt;/font&gt;" style="text;html=1;align=center;verticalAlign=middle;whiteSpace=wrap;rounded=0;" vertex="1" parent="oS-47Cp94gKq5thYV_a9-113">
          <mxGeometry x="20" y="65" width="40" height="30" as="geometry" />
        </mxCell>
        <mxCell id="oS-47Cp94gKq5thYV_a9-107" value="&lt;span style=&quot;font-size: 14px;&quot;&gt;&lt;b&gt;startup&lt;/b&gt;&lt;/span&gt;" style="rounded=0;whiteSpace=wrap;html=1;container=0;" vertex="1" parent="oS-47Cp94gKq5thYV_a9-113">
          <mxGeometry x="180" y="20" width="120" height="40" as="geometry" />
        </mxCell>
        <mxCell id="oS-47Cp94gKq5thYV_a9-109" value="&lt;span style=&quot;font-size: 14px;&quot;&gt;&lt;b&gt;c&amp;amp;c&lt;/b&gt;&lt;/span&gt;" style="rounded=0;whiteSpace=wrap;html=1;container=0;" vertex="1" parent="oS-47Cp94gKq5thYV_a9-113">
          <mxGeometry x="180" y="100" width="120" height="40" as="geometry" />
        </mxCell>
        <mxCell id="oS-47Cp94gKq5thYV_a9-112" style="edgeStyle=orthogonalEdgeStyle;rounded=0;orthogonalLoop=1;jettySize=auto;html=1;exitX=0.25;exitY=0;exitDx=0;exitDy=0;entryX=0;entryY=0.5;entryDx=0;entryDy=0;" edge="1" parent="oS-47Cp94gKq5thYV_a9-114" source="oS-47Cp94gKq5thYV_a9-37" target="oS-47Cp94gKq5thYV_a9-107">
          <mxGeometry relative="1" as="geometry" />
        </mxCell>
        <mxCell id="oS-47Cp94gKq5thYV_a9-110" value="" style="endArrow=classic;startArrow=classic;html=1;rounded=0;exitX=0.75;exitY=0;exitDx=0;exitDy=0;entryX=0;entryY=0.5;entryDx=0;entryDy=0;" edge="1" parent="oS-47Cp94gKq5thYV_a9-114" source="oS-47Cp94gKq5thYV_a9-37" target="oS-47Cp94gKq5thYV_a9-109">
          <mxGeometry width="50" height="50" relative="1" as="geometry">
            <mxPoint x="530" y="290" as="sourcePoint" />
            <mxPoint x="580" y="240" as="targetPoint" />
            <Array as="points">
              <mxPoint x="110" y="140" />
            </Array>
          </mxGeometry>
        </mxCell>
        <mxCell id="oS-47Cp94gKq5thYV_a9-116" value="&lt;font style=&quot;font-size: 14px;&quot;&gt;&lt;b&gt;NMBS&lt;/b&gt;&lt;/font&gt;" style="rounded=1;whiteSpace=wrap;html=1;" vertex="1" parent="oS-47Cp94gKq5thYV_a9-118">
          <mxGeometry y="140" width="100" height="100" as="geometry" />
        </mxCell>
        <mxCell id="oS-47Cp94gKq5thYV_a9-117" value="" style="endArrow=classic;html=1;rounded=0;exitX=1;exitY=0.5;exitDx=0;exitDy=0;entryX=0;entryY=0.5;entryDx=0;entryDy=0;" edge="1" parent="oS-47Cp94gKq5thYV_a9-118" source="oS-47Cp94gKq5thYV_a9-116" target="oS-47Cp94gKq5thYV_a9-37">
          <mxGeometry width="50" height="50" relative="1" as="geometry">
            <mxPoint x="300" y="480" as="sourcePoint" />
            <mxPoint x="350" y="430" as="targetPoint" />
          </mxGeometry>
        </mxCell>
        <mxCell id="oS-47Cp94gKq5thYV_a9-121" style="edgeStyle=orthogonalEdgeStyle;rounded=0;orthogonalLoop=1;jettySize=auto;html=1;exitX=0.25;exitY=1;exitDx=0;exitDy=0;entryX=0.5;entryY=0;entryDx=0;entryDy=0;" edge="1" parent="1" source="oS-47Cp94gKq5thYV_a9-37" target="oS-47Cp94gKq5thYV_a9-4">
          <mxGeometry relative="1" as="geometry">
            <Array as="points">
              <mxPoint x="200" y="770" />
              <mxPoint x="740" y="770" />
            </Array>
          </mxGeometry>
        </mxCell>
        <mxCell id="oS-47Cp94gKq5thYV_a9-123" value="" style="endArrow=classic;startArrow=classic;html=1;rounded=0;entryX=0;entryY=0.5;entryDx=0;entryDy=0;" edge="1" parent="1" target="oS-47Cp94gKq5thYV_a9-2">
          <mxGeometry width="50" height="50" relative="1" as="geometry">
            <mxPoint x="670" y="364" as="sourcePoint" />
            <mxPoint x="780" y="570" as="targetPoint" />
          </mxGeometry>
        </mxCell>
        <mxCell id="oS-47Cp94gKq5thYV_a9-124" value="&lt;font style=&quot;font-size: 14px;&quot;&gt;&lt;b&gt;TCP communication&lt;/b&gt;&lt;/font&gt;" style="text;html=1;align=center;verticalAlign=middle;whiteSpace=wrap;rounded=0;" vertex="1" parent="1">
          <mxGeometry x="690" y="330" width="100" height="30" as="geometry" />
        </mxCell>
      </root>
    </mxGraphModel>
  </diagram>
</mxfile>
